# xmcd CD database file
#
# Track frame offsets:
#	150
#	22450
#	49890
#	83752
#	106755
#	129836
#	149461
#	164169
#	179244
#	205865
#	218615
#	248296
#	269760
#
# Disc length: 3954 seconds
#
# Revision: 0
# Processed by: cddbd v1.5PL3 Copyright (c) Steve Scherf et al.
# Submitted via: CDex 1.51
#
DISCID=c30f700d
DTITLE=Eddie Higgins - The Bset Of Tenderly Eddie Higgins
DYEAR=2003
DGENRE=Jazz
TTITLE0=Over The Rainbow
TTITLE1=What A Diff'rence A Day Made
TTITLE2=Smoke Gets In Your Eyes
TTITLE3=Moonlight Becomes You
TTITLE4=As Time Goes By
TTITLE5=I Didn't Know About You
TTITLE6=Tenderly
TTITLE7=Again
TTITLE8=Autumn In New York
TTITLE9=Now Please Don't You Cry, Beautiful Edith
TTITLE10=You Don't Know What Love Is
TTITLE11=Someone To Watch Over Me
TTITLE12=The Peacocks
EXTD=YEAR: 2003
EXTT0=
EXTT1=
EXTT2=
EXTT3=
EXTT4=
EXTT5=
EXTT6=
EXTT7=
EXTT8=
EXTT9=
EXTT10=
EXTT11=
EXTT12=
PLAYORDER=
